<svg xmlns="http://www.w3.org/2000/svg" viewBox="0 0 24 24" fill="currentColor">
  <!-- Paint palette shape with filled design -->
  <path d="M12 2C6.48 2 2 6.48 2 12s4.48 10 10 10c.55 0 1-.45 1-1 0-.25-.1-.48-.25-.66-.15-.18-.25-.43-.25-.68 0-.55.45-1 1-1h1.18c3.31 0 6-2.69 6-6 0-4.97-4.48-9-9-9zM7 10c-.55 0-1-.45-1-1s.45-1 1-1 1 .45 1 1-.45 1-1 1zm3.5-3.5c-.55 0-1-.45-1-1s.45-1 1-1 1 .45 1 1-.45 1-1 1zm4 0c-.55 0-1-.45-1-1s.45-1 1-1 1 .45 1 1-.45 1-1 1zm2.5 3.5c-.55 0-1-.45-1-1s.45-1 1-1 1 .45 1 1-.45 1-1 1zm0 4c-.55 0-1-.45-1-1s.45-1 1-1 1 .45 1 1-.45 1-1 1z"/>
</svg>
