<svg xmlns="http://www.w3.org/2000/svg" viewBox="0 0 24 24" fill="none" stroke="currentColor" stroke-width="2" stroke-linecap="round" stroke-linejoin="round">
  <!-- Paint palette shape -->
  <path d="M12 2C6.48 2 2 6.48 2 12s4.48 10 10 10c.55 0 1-.45 1-1 0-.25-.1-.48-.25-.66-.15-.18-.25-.43-.25-.68 0-.55.45-1 1-1h1.18c3.31 0 6-2.69 6-6 0-4.97-4.48-9-9-9z"/>
  
  <!-- Paint color dots -->
  <circle cx="7" cy="9" r="1.5" fill="currentColor"/>
  <circle cx="10.5" cy="6.5" r="1.5" fill="currentColor"/>
  <circle cx="14.5" cy="6.5" r="1.5" fill="currentColor"/>
  <circle cx="17" cy="9" r="1.5" fill="currentColor"/>
  <circle cx="17" cy="13" r="1.5" fill="currentColor"/>
</svg>
